PathFileType	4	(X/Y/Z)	C:/Users/opensim2020/Desktop/walking_exp_matlab/subject01_walking12_straight_02.trc	
DataRate	CameraRate	NumFrames	NumMarkers	Units	OrigDataRate	OrigDataStartFrame	OrigNumFrames	
100.00	100.00	8	44	mm	100.00	1247	122	
Frame#	Time	LFHD			RFHD			LBHD			RBHD			C7			T10			CLAV			STRN			RBAK			LSHO			LUPA			LELB			LFRM			LWRA			LWRB			LFIN			RSHO			RUPA			RELB			RFRM			RWRA			RWRB			RFIN			LASI			RASI			LPSI			RPSI			LTHI			LKNE			LTIB			LANK			LHEE			LTOE			RTHI			RKNE			RTIB			RANK			RHEE			RTOE			*39			*40			*41			*42			*43			
		X1	Y1	Z1	X2	Y2	Z2	X3	Y3	Z3	X4	Y4	Z4	X5	Y5	Z5	X6	Y6	Z6	X7	Y7	Z7	X8	Y8	Z8	X9	Y9	Z9	X10	Y10	Z10	X11	Y11	Z11	X12	Y12	Z12	X13	Y13	Z13	X14	Y14	Z14	X15	Y15	Z15	X16	Y16	Z16	X17	Y17	Z17	X18	Y18	Z18	X19	Y19	Z19	X20	Y20	Z20	X21	Y21	Z21	X22	Y22	Z22	X23	Y23	Z23	X24	Y24	Z24	X25	Y25	Z25	X26	Y26	Z26	X27	Y27	Z27	X28	Y28	Z28	X29	Y29	Z29	X30	Y30	Z30	X31	Y31	Z31	X32	Y32	Z32	X33	Y33	Z33	X34	Y34	Z34	X35	Y35	Z35	X36	Y36	Z36	X37	Y37	Z37	X38	Y38	Z38	X39	Y39	Z39	X40	Y40	Z40	X41	Y41	Z41	X42	Y42	Z42	X43	Y43	Z43	X44	Y44	Z44	

1	0.000	1502.31812	949.57611	1656.56384	1391.69189	927.60101	1665.31689	1483.60693	1063.28589	1609.95447	1366.18835	1044.17847	1618.13635	1436.93604	1099.29053	1421.23938	1420.15027	1136.92224	1127.56140	1440.60767	957.69287	1349.99438	1442.03796	913.24561	1196.83032	1351.89844	1154.90137	1228.69519	1600.52258	1023.70612	1375.21155	1674.90210	1073.15125	1190.12488	1665.04675	1103.40967	1044.44495	1687.70520	1089.83936	932.24066	1669.21008	1038.66479	801.74554	1691.03882	1094.72656	809.87665	1695.99561	1067.93469	727.94196	1287.54871	1014.13489	1381.87256	1178.09424	1065.80200	1185.72815	1167.20850	1056.25427	1058.07019	1153.31165	981.17828	956.29626	1198.32813	866.20648	885.66785	1152.56519	897.23755	867.01642	1165.10413	831.15582	816.81464	1527.77466	954.14636	926.12183	1312.07458	963.99323	915.00214	1486.00354	1143.41992	935.86890	1341.31641	1147.05042	937.96271	1582.75354	904.24542	610.45642	1560.59985	878.54547	479.10226	1576.87036	904.16412	291.05460	1525.93481	920.81995	74.58101	1474.16016	966.29620	45.13723	1531.06177	773.58429	38.59333	1252.01233	1061.31409	586.18475	1267.70276	1089.08655	428.10605	1269.47424	1240.39233	335.14651	1311.73267	1393.43750	192.11169	1363.52319	1440.18274	215.40756	1343.83984	1368.75378	49.98507	1413.75513	941.57770	1697.93958	-3101.88354	1973.10425	1023.83691	-3140.71021	2012.51599	1022.10211						 
2	0.010	1504.99683	937.69147	1657.10437	1394.37732	916.05487	1666.15735	1486.60852	1051.65918	1610.70715	1369.11926	1032.68433	1619.12610	1439.39502	1087.64343	1422.00305	1422.53540	1124.87268	1128.10620	1442.64014	945.81189	1350.88184	1444.07825	903.24408	1197.29089	1353.78748	1143.69275	1229.75439	1602.63684	1011.62292	1375.98816	1677.54956	1058.67444	1190.63257	1668.27393	1087.17529	1044.45984	1691.30237	1072.13013	932.58008	1672.99744	1019.44482	802.59753	1695.18127	1075.64417	810.29584	1700.23071	1047.35107	728.70721	1289.87134	1002.85455	1382.64978	1180.36609	1054.80261	1186.47888	1170.10461	1046.27832	1058.83862	1155.18420	973.01263	955.75092	1199.29907	858.88379	882.75555	1153.76782	890.55371	864.83905	1165.64526	825.38031	813.28857	1530.40967	942.38129	926.86298	1314.39832	951.74231	915.86340	1487.97107	1131.43506	936.50555	1343.08594	1134.78967	937.72821	1584.56604	894.73975	609.58954	1562.34729	870.38489	478.12152	1576.97253	899.61908	290.82288	1525.85718	920.47931	74.72340	1474.23889	966.23370	45.32942	1530.96448	773.26434	38.26058	1253.20996	1041.67004	584.55658	1268.59790	1065.29370	426.28625	1268.89502	1218.39075	337.10742	1311.23877	1375.20557	199.83698	1362.35266	1421.28735	226.20653	1343.00256	1360.95679	55.87274	1416.70947	929.95026	1698.73413	-3101.92236	1973.08618	1023.66492	-3140.69458	2012.52832	1022.12543						 
3	0.020	1507.63928	925.80499	1657.72363	1397.01978	904.41071	1667.11621	1489.37402	1039.93079	1611.54187	1371.85071	1021.11169	1620.28870	1441.55322	1075.87000	1422.75366	1424.93701	1113.10925	1128.79028	1444.49561	934.15210	1351.84045	1445.68896	891.53223	1198.09338	1355.68713	1131.92053	1230.56250	1604.53772	999.58051	1376.86182	1680.07275	1044.28650	1191.31128	1671.57397	1071.04065	1044.70068	1694.92969	1054.23303	933.12048	1676.83582	999.78638	803.83209	1699.27209	1056.03918	810.89777	1704.80225	1026.58948	729.64392	1291.77954	991.25073	1383.50513	1182.33105	1043.61243	1187.30725	1172.90881	1036.34277	1059.53137	1157.24536	964.79822	955.04199	1200.01526	851.69470	879.72803	1155.11377	884.26184	862.71942	1166.27026	820.17004	809.77289	1532.79993	930.85889	927.31702	1316.60938	939.68579	916.95294	1490.00671	1119.69482	937.11475	1344.90894	1123.09790	937.45752	1586.30237	887.00989	608.78796	1564.04700	863.24969	477.51352	1576.60669	896.34979	290.79303	1525.75525	920.16608	74.88323	1474.22729	966.13062	45.48183	1530.97375	772.97040	37.91803	1254.83191	1021.88800	583.10535	1269.76550	1041.32764	425.16205	1268.19592	1195.89551	339.21326	1311.26770	1355.95056	207.82074	1362.26855	1400.97363	236.25682	1340.79688	1349.16895	62.28069	1419.49597	918.12268	1699.76709	-3101.95776	1973.05347	1023.45435	-3140.80396	2012.43469	1022.01178						 
4	0.030	1510.14392	913.92474	1658.38318	1399.43469	892.58368	1668.10095	1491.80420	1028.06189	1612.44678	1374.39722	1009.57953	1621.59814	1443.58118	1064.24707	1423.62964	1427.33044	1101.57202	1129.64636	1446.17712	922.52643	1352.85962	1447.13757	879.82404	1199.06067	1357.74292	1120.24573	1231.40002	1606.32129	987.42657	1377.84619	1682.65405	1030.02930	1192.18811	1674.81287	1055.01025	1045.08679	1698.52380	1036.28210	933.82727	1680.65015	979.74994	805.39703	1702.99951	1035.92859	811.45898	1709.33813	1005.10797	731.18652	1293.50647	979.95135	1384.47583	1184.09619	1032.46216	1188.25232	1175.61328	1026.33704	1060.22278	1159.06152	956.97565	954.43353	1200.87109	844.97150	876.71210	1156.18408	878.09216	860.40247	1167.04492	815.00330	806.12488	1534.95984	919.49066	927.77380	1318.45129	928.15570	918.10181	1492.01074	1108.22522	937.67932	1346.77612	1111.73499	937.15100	1588.16211	879.80975	607.92645	1565.70447	856.99884	476.89926	1575.92139	894.18201	290.53818	1525.75256	919.82959	74.84045	1474.16675	966.02533	45.63675	1531.01782	772.81708	37.84840	1256.50940	1002.12958	582.55994	1270.89966	1017.15137	424.79111	1267.70239	1172.82678	341.44135	1311.77856	1336.03894	215.41435	1363.59814	1379.67676	244.99643	1337.07178	1334.46204	68.82323	1422.12842	906.25763	1700.80713	-3102.06421	1972.93201	1023.82990	-3140.66138	2012.46094	1021.99561						 
5	0.040	1512.42944	902.05023	1659.12634	1401.76086	880.85187	1669.24353	1494.11230	1016.25787	1613.43518	1376.54382	997.75476	1623.02307	1445.48291	1052.73669	1424.60071	1429.64941	1090.20251	1130.69458	1447.51587	911.04608	1353.83484	1448.48389	868.47656	1200.05176	1360.06763	1108.71362	1232.24622	1607.91565	975.29614	1378.92444	1685.11084	1015.82520	1193.17249	1678.01880	1039.08862	1045.60449	1702.08899	1018.24048	934.74231	1684.50085	959.38550	807.31573	1707.14954	1015.56342	812.41003	1713.95825	983.13794	733.02197	1295.21411	968.74377	1385.26343	1185.76306	1021.23004	1189.17700	1178.23560	1016.33948	1060.82849	1160.94507	949.25830	953.76770	1201.82239	837.97559	873.67847	1156.59509	872.78796	857.97687	1167.48267	810.50940	802.30988	1536.90283	908.21124	928.16962	1320.13831	916.47375	919.62994	1493.90442	1096.93018	938.22565	1348.62061	1100.56189	936.86725	1590.51135	872.43359	607.94946	1567.43384	851.45837	476.03726	1576.17859	892.52777	290.34317	1525.70667	919.67279	74.93160	1473.99976	965.96906	45.78823	1531.14917	772.77533	37.67986	1258.10413	982.21399	582.91583	1272.02051	992.87854	424.99515	1267.81189	1149.23682	343.61426	1312.71045	1315.44019	222.37569	1366.74097	1358.15808	252.07681	1332.60693	1317.24316	75.44875	1424.64563	894.39441	1701.84888	-3101.93091	1973.11389	1023.48065	-3140.63184	2012.58191	1022.03912						 
6	0.050	1514.51758	890.22241	1659.97668	1403.88330	869.10199	1670.37244	1496.23938	1004.55475	1614.56262	1378.62000	986.14520	1624.46997	1447.25879	1041.32617	1425.67236	1431.96204	1079.00940	1131.87793	1448.74780	899.61792	1354.91101	1449.63757	857.06696	1201.03491	1362.44043	1097.31567	1233.18420	1609.30444	963.11578	1380.04895	1687.42993	1001.73877	1194.33081	1681.11951	1023.26135	1046.28723	1705.74390	1000.06549	935.93500	1688.30737	938.73590	809.56647	1711.17517	994.79108	813.61328	1718.47986	960.75439	735.18323	1296.60779	957.73572	1386.27942	1187.40027	1010.10028	1190.10486	1180.69971	1006.22479	1061.44702	1162.84229	941.78149	953.19281	1202.64258	832.64484	870.44257	1157.65796	867.32434	855.71222	1168.07617	806.23956	798.48547	1538.66675	897.08978	928.70795	1322.14197	906.18933	920.87646	1495.64258	1085.83618	938.79700	1350.45203	1089.34509	936.69641	1592.35278	865.86206	607.22449	1569.14465	846.53845	474.96597	1576.18176	890.27997	289.57050	1525.53711	919.35455	74.81940	1473.81396	965.87927	46.00034	1531.20874	772.60040	37.62109	1259.57202	962.64618	584.00067	1273.16711	968.80066	425.98187	1268.59460	1124.96069	345.69791	1314.31995	1294.16602	228.73885	1370.20972	1335.89221	256.62573	1328.05554	1296.84839	81.48326	1426.85559	882.65515	1702.90625	-3101.97925	1973.05920	1023.48676	-3140.70776	2012.55212	1022.14655						 
7	0.060	1516.37830	878.35022	1660.87073	1405.76001	857.35400	1671.49500	1498.09070	992.78851	1615.77185	1380.50537	974.49396	1625.98059	1448.83691	1029.89270	1426.85046	1434.28003	1067.93982	1133.19128	1449.87756	888.24567	1356.04602	1450.75610	845.90625	1202.08545	1364.92700	1086.06812	1234.10815	1610.58838	951.06598	1381.26843	1689.59412	987.65533	1195.59387	1684.13135	1007.39624	1047.03357	1709.12109	981.92236	937.12488	1692.06982	917.86871	812.11993	1715.15491	973.92743	815.11432	1723.01953	937.93439	737.63599	1297.98157	946.73181	1387.43530	1189.03271	999.24603	1191.01501	1182.96289	996.10382	1062.20264	1164.28931	934.17517	952.50623	1202.69336	826.08307	867.62085	1158.69299	861.97656	853.51587	1168.70068	802.53949	794.90491	1540.31177	886.06897	929.36871	1323.36108	894.30463	922.63391	1497.24146	1074.87195	939.45148	1352.23157	1078.19617	936.84186	1593.66602	859.67584	606.25043	1570.75391	842.04803	473.66589	1576.67139	887.72815	288.99875	1525.53296	919.13776	74.94180	1473.68542	965.75323	46.16726	1531.31946	772.50964	37.45998	1260.97815	943.20905	585.68262	1274.18237	944.61743	427.54358	1269.23132	1100.76611	347.94672	1316.13367	1271.98596	234.29088	1373.39148	1313.72168	260.02914	1323.92261	1273.32483	86.81519	1428.83386	870.82941	1703.93665	-3101.91528	1973.08826	1023.62268	-3140.74390	2012.47375	1022.03979						 
8	0.070	1518.04858	866.53394	1661.79102	1407.50891	845.61090	1672.60059	1499.75891	981.08411	1617.05811	1382.20947	962.88031	1627.41028	1450.33557	1018.52948	1428.09375	1436.47485	1056.96338	1134.49121	1450.87048	876.90912	1357.13232	1451.90112	834.72778	1203.09497	1367.31335	1074.86047	1235.13953	1611.74609	939.10803	1382.53503	1691.54688	973.67053	1196.93262	1687.12549	991.68903	1047.97058	1712.67224	963.67426	938.71710	1696.00391	896.82721	815.21375	1719.11304	952.90344	816.89026	1727.51599	914.91687	740.55389	1299.08899	935.85614	1388.46643	1190.71509	988.51410	1191.92871	1185.04236	985.94952	1063.11609	1165.94922	926.82111	952.25970	1203.21509	820.56415	864.72314	1159.67456	856.96313	851.39600	1169.08887	799.04742	791.14960	1542.09924	875.21637	930.28046	1325.25488	883.67859	924.04022	1498.64612	1064.02234	940.20233	1353.78223	1066.93115	937.26782	1595.09167	853.43829	605.48145	1572.25012	837.92590	472.55768	1577.26819	885.06299	288.23846	1525.38538	918.77417	74.74191	1473.57556	965.69843	46.41554	1531.48230	772.56470	37.41085	1262.17627	923.99902	587.44342	1275.37427	920.95172	429.92010	1270.49475	1076.54968	350.09592	1318.26416	1248.49292	237.85463	1375.84827	1291.68750	261.97696	1320.44385	1246.85107	91.22762	1430.63367	858.93231	1705.04675	-3101.97192	1973.07080	1023.45032	-3140.79565	2012.57617	1022.18530						 
